# xmcd CD database file
#
# Track frame offsets:
#	150
#	19894
#	34807
#	57443
#	73640
#	101332
#	116466
#	141187
#	162459
#
# Disc length: 2381 seconds
#
# Revision: 0
# Processed by: cddbd v1.5.2PL0 Copyright (c) Steve Scherf et al.
# Submitted via: CDex 1.51
#
DISCID=7a094b09
DTITLE=Bill Durst Band - The Wharncliffe Sessions
DYEAR=1900
DGENRE=Blues
TTITLE0=I Am A Man Of Constant Sorrow
TTITLE1=Jenny's In The Gin
TTITLE2=Woodstock
TTITLE3=I Want To Be Loved
TTITLE4=Little Wing
TTITLE5=Tube Snake Boogie
TTITLE6=Voodoo Child
TTITLE7=Statesboro Blues
TTITLE8=Let's Work Together
EXTD=
EXTT0=
EXTT1=
EXTT2=
EXTT3=
EXTT4=
EXTT5=
EXTT6=
EXTT7=
EXTT8=
PLAYORDER=
